<?xml version="1.0" encoding="utf-8"?>
<!-- Generator: Adobe Illustrator 27.5.0, SVG Export Plug-In . SVG Version: 6.00 Build 0)  -->
<svg version="1.1" id="Layer_1" xmlns="http://www.w3.org/2000/svg" xmlns:xlink="http://www.w3.org/1999/xlink" x="0px" y="0px"
	 viewBox="0 0 443.045 287.077" style="enable-background:new 0 0 443.045 287.077;" xml:space="preserve">
<g>
	<g>
		<g>
			<rect x="242.926" y="76.228" style="fill:#64C6BB;" width="2.916" height="130.811"/>
			<path style="fill:#96CA4E;" d="M241.769,205.748h-2.916v-59.981c0-2.083-0.478-3.63-1.383-4.471
				c-0.925-0.864-2.059-0.788-2.104-0.787l-0.129,0.005h-9.839c-6.161,0-8.114-5.225-8.288-7.985l-0.002-78.115h3.618l-0.702,77.969
				c0.059,0.704,0.623,5.216,5.374,5.216h9.785c0.491-0.036,2.492-0.053,4.214,1.507c1.574,1.424,2.372,3.664,2.372,6.661V205.748z"
				/>
			<path style="fill:#7B55A3;" d="M249.945,197.302l-2.916-4.342v-72.563c0-2.995,0.798-5.236,2.372-6.661
				c1.726-1.56,3.725-1.538,4.216-1.508h9.783c4.994,0,5.363-5.035,5.378-5.25l-0.003-63.283h2.915v63.375
				c-0.174,2.851-2.127,8.074-8.29,8.074l-9.982-0.007c-0.036-0.003-1.163-0.073-2.09,0.789c-0.903,0.842-1.383,2.388-1.383,4.471
				V197.302z"/>
			<rect x="189.834" y="91.793" style="fill:#D184B8;" width="2.913" height="105.509"/>
			<path style="fill:#F48176;" d="M188.676,196.012h-2.915v-59.981c0-2.086-0.478-3.63-1.384-4.471
				c-0.928-0.864-2.061-0.786-2.108-0.789l-0.125,0.007h-9.836c-6.163,0-8.118-5.223-8.291-7.985l-0.004-63.466h2.918v63.32
				c0.059,0.703,0.621,5.217,5.377,5.217h9.781c0.49-0.038,2.491-0.052,4.215,1.505c1.573,1.425,2.372,3.666,2.372,6.662V196.012z"
				/>
			<rect x="378.076" y="99.596" style="fill:#2B62AD;" width="2.916" height="107.442"/>
			<path style="fill:#98D6D6;" d="M376.919,205.748h-2.916v-59.981c0-2.105-0.489-3.663-1.413-4.499
				c-0.921-0.835-2.046-0.76-2.058-0.761l-0.146,0.008h-9.839c-6.161,0-8.116-5.225-8.29-7.985v-92.87h2.915v92.724
				c0.059,0.704,0.622,5.216,5.375,5.216h9.785c0.491-0.036,2.491-0.053,4.214,1.507c1.572,1.424,2.372,3.664,2.372,6.661V205.748z"
				/>
			<path style="fill:#F6C648;" d="M385.096,213.76h-2.918v-59.981c0-2.996,0.8-5.237,2.374-6.662
				c1.724-1.561,3.725-1.537,4.215-1.507h9.782c4.755,0,5.317-4.512,5.374-5.216V55.152h2.918v85.298
				c-0.176,2.853-2.131,8.075-8.292,8.075l-9.982-0.009c-0.034-0.001-1.165-0.071-2.09,0.79c-0.901,0.841-1.381,2.389-1.381,4.473
				V213.76z"/>
			<rect x="313.969" y="69.577" style="fill:#F177AC;" width="2.916" height="127.725"/>
			<path style="fill:#2B62AD;" d="M312.811,196.012h-2.916v-59.981c0-2.107-0.488-3.665-1.413-4.501
				c-0.921-0.833-2.044-0.759-2.056-0.761l-0.145,0.009h-9.839c-6.162,0-8.116-5.223-8.29-7.985l-0.004-36.821l2.918,3.175v33.499
				c0.059,0.703,0.623,5.217,5.376,5.217h9.784c0.492-0.038,2.491-0.052,4.213,1.505c1.574,1.425,2.372,3.666,2.372,6.662V196.012z"
				/>
		</g>
		<path style="fill:#0088CA;" d="M304.711,94.915c0,8.423-6.828,15.251-15.251,15.251c-8.424,0-15.251-6.828-15.251-15.251
			c0-8.422,6.827-15.25,15.251-15.25C297.883,79.665,304.711,86.493,304.711,94.915z"/>
		<path style="fill:#F177AC;" d="M380.785,36.929c0,12.771-10.353,23.125-23.124,23.125c-12.771,0-23.125-10.354-23.125-23.125
			s10.354-23.125,23.125-23.125C370.432,13.805,380.785,24.158,380.785,36.929z"/>
		<g>
			<circle style="fill:#F48747;" cx="406.841" cy="66.054" r="26.279"/>
			<g>
				<g>
					<g>
						<path style="fill:#FFFFFF;" d="M396.779,73.939c0.772,0,1.397-0.655,1.397-1.462v-9.066h-2.796v9.066
							C395.381,73.285,396.008,73.939,396.779,73.939z"/>
						<path style="fill:#FFFFFF;" d="M399.327,54.964c0-0.422-0.345-0.768-0.77-0.768h-3.582c-0.425,0-0.768,0.346-0.768,0.768
							c0,0.287,0.159,0.536,0.395,0.668V72.64c0,1.182,0.97,2.141,2.165,2.141c1.193,0,2.165-0.96,2.165-2.141V55.633
							C399.166,55.5,399.327,55.251,399.327,54.964z M394.976,54.682h3.582c0.157,0,0.284,0.126,0.284,0.283
							c0,0.156-0.127,0.284-0.284,0.284h-3.582c-0.157,0-0.282-0.128-0.282-0.284C394.693,54.808,394.818,54.682,394.976,54.682z
							 M398.448,72.64c0,0.913-0.756,1.656-1.681,1.656c-0.927,0-1.681-0.742-1.681-1.656V55.733h3.361V72.64z"/>
					</g>
					<g>
						<path style="fill:#FFFFFF;" d="M403.495,73.939c0.773,0,1.398-0.655,1.398-1.462v-9.066h-2.797v9.066
							C402.097,73.285,402.722,73.939,403.495,73.939z"/>
						<path style="fill:#FFFFFF;" d="M406.043,54.964c0-0.422-0.345-0.768-0.767-0.768h-3.585c-0.424,0-0.768,0.346-0.768,0.768
							c0,0.287,0.159,0.536,0.393,0.668V72.64c0,1.182,0.972,2.141,2.165,2.141c1.194,0,2.168-0.96,2.168-2.141V55.633
							C405.882,55.5,406.043,55.251,406.043,54.964z M401.691,54.682h3.585c0.155,0,0.282,0.126,0.282,0.283
							c0,0.156-0.127,0.284-0.282,0.284h-3.585c-0.155,0-0.282-0.128-0.282-0.284C401.409,54.808,401.536,54.682,401.691,54.682z
							 M405.162,72.64c0,0.913-0.754,1.656-1.681,1.656c-0.924,0-1.678-0.742-1.678-1.656V55.733h3.358V72.64z"/>
					</g>
					<g>
						<path style="fill:#FFFFFF;" d="M410.211,73.939c0.773,0,1.398-0.655,1.398-1.462v-9.066h-2.796v9.066
							C408.814,73.285,409.439,73.939,410.211,73.939z"/>
						<path style="fill:#FFFFFF;" d="M412.758,54.964c0-0.422-0.343-0.768-0.768-0.768h-3.585c-0.422,0-0.767,0.346-0.767,0.768
							c0,0.287,0.161,0.536,0.393,0.668V72.64c0,1.182,0.973,2.141,2.168,2.141c1.193,0,2.161-0.96,2.161-2.141V55.633
							C412.599,55.5,412.758,55.251,412.758,54.964z M408.405,54.682h3.585c0.155,0,0.282,0.126,0.282,0.283
							c0,0.156-0.127,0.284-0.282,0.284h-3.585c-0.155,0-0.28-0.128-0.28-0.284C408.125,54.808,408.25,54.682,408.405,54.682z
							 M411.878,72.64c0,0.913-0.752,1.656-1.678,1.656c-0.927,0-1.683-0.742-1.683-1.656V55.733h3.36V72.64z"/>
					</g>
					<g>
						<path style="fill:#FFFFFF;" d="M416.928,73.939c0.772,0,1.397-0.655,1.397-1.462v-9.066h-2.796v9.066
							C415.529,73.285,416.154,73.939,416.928,73.939z"/>
						<path style="fill:#FFFFFF;" d="M419.474,54.964c0-0.422-0.345-0.768-0.768-0.768h-3.582c-0.425,0-0.77,0.346-0.77,0.768
							c0,0.287,0.161,0.536,0.397,0.668V72.64c0,1.182,0.97,2.141,2.163,2.141c1.193,0,2.165-0.96,2.165-2.141V55.633
							C419.313,55.5,419.474,55.251,419.474,54.964z M415.124,54.682h3.582c0.157,0,0.282,0.126,0.282,0.283
							c0,0.156-0.125,0.284-0.282,0.284h-3.582c-0.157,0-0.284-0.128-0.284-0.284C414.84,54.808,414.967,54.682,415.124,54.682z
							 M418.595,72.64c0,0.913-0.754,1.656-1.681,1.656c-0.927,0-1.681-0.742-1.681-1.656V55.733h3.361V72.64z"/>
					</g>
				</g>
				<path style="fill:#FFFFFF;" d="M422.315,75.635h-0.828V61.604h0.811c0.07,0,0.126-0.056,0.126-0.128v-1.033
					c0-0.07-0.056-0.128-0.126-0.128h-30.914c-0.072,0-0.129,0.059-0.129,0.128v1.033c0,0.073,0.057,0.128,0.129,0.128h0.811v14.031
					h-0.828c-0.072,0-0.129,0.057-0.129,0.128v2.021c0,0.069,0.057,0.128,0.129,0.128h30.949c0.07,0,0.129-0.059,0.129-0.128v-2.021
					C422.444,75.691,422.386,75.635,422.315,75.635z M420.431,61.604v14.031h-27.18V61.604H420.431z"/>
			</g>
		</g>
		<g>
			<path style="fill:#EE3B42;" d="M207.794,97.175c0,9.114-7.389,16.503-16.503,16.503c-9.117,0-16.504-7.389-16.504-16.503
				c0-9.114,7.387-16.503,16.504-16.503C200.405,80.671,207.794,88.061,207.794,97.175z"/>
			<path style="fill:#FFFFFF;" d="M199.067,91.831c-0.655-3.395-3.925-5.859-7.776-5.859c-3.85,0-7.122,2.464-7.773,5.853
				c-0.086,0.39-0.127,0.792-0.121,1.165l-0.004,0.062c0.004,0.171,0.013,0.343,0.028,0.513c0.032,0.38,0.099,0.762,0.198,1.129
				c0.429,1.706,1.391,3.3,2.096,4.462c0.188,0.309,0.356,0.589,0.494,0.836c0.975,1.74,1.199,3.614,1.233,3.946v0.017
				c0,0.038,0.002,0.091,0.042,0.149c-0.157,0.168-0.24,0.347-0.24,0.539c0,0.212,0.093,0.408,0.282,0.588
				c-0.186,0.177-0.282,0.371-0.282,0.581c0,0.248,0.136,0.475,0.395,0.678c-0.258,0.202-0.395,0.429-0.395,0.676
				c0,0.281,0.164,0.535,0.494,0.758c0.097,0.066,0.21,0.127,0.379,0.2c0.584,0.156,1.811,0.254,3.2,0.254
				c1.362,0,2.578-0.093,3.217-0.261c0.144-0.066,0.263-0.134,0.365-0.202c0.4-0.273,0.483-0.557,0.483-0.749
				c0-0.173-0.074-0.426-0.391-0.677c0.316-0.251,0.391-0.503,0.391-0.677c0-0.153-0.057-0.366-0.284-0.585
				c0.228-0.218,0.284-0.43,0.284-0.584c0-0.147-0.053-0.35-0.258-0.56l0.01-0.107c0.004-0.021,0.188-2.106,1.237-3.984
				c0.136-0.246,0.307-0.525,0.494-0.833c0.703-1.163,1.667-2.758,2.096-4.46c0.1-0.369,0.166-0.75,0.2-1.134
				c0.014-0.17,0.026-0.341,0.024-0.482l0.002-0.062C199.191,92.616,199.149,92.212,199.067,91.831z M187.875,104.421
				c0.361,0.178,1.254,0.354,3.442,0.354c2.173,0,3.067-0.173,3.435-0.351c0.079,0.078,0.123,0.152,0.123,0.218
				c0,0.096-0.091,0.215-0.262,0.329c-0.083,0.057-0.184,0.11-0.25,0.146c-0.547,0.139-1.745,0.23-3.046,0.23
				c-1.328,0-2.533-0.093-3.027-0.223c-0.103-0.046-0.191-0.095-0.271-0.146c-0.172-0.117-0.269-0.238-0.269-0.336
				C187.75,104.576,187.793,104.5,187.875,104.421z M187.875,105.591c0.361,0.177,1.254,0.353,3.442,0.353
				c2.173,0,3.067-0.173,3.435-0.351c0.079,0.078,0.123,0.152,0.123,0.219c0,0.097-0.091,0.214-0.262,0.329
				c-0.083,0.057-0.184,0.11-0.25,0.146c-0.547,0.139-1.745,0.23-3.046,0.23c-1.328,0-2.533-0.093-3.027-0.222
				c-0.103-0.046-0.191-0.095-0.271-0.146c-0.172-0.119-0.269-0.24-0.269-0.337C187.75,105.744,187.793,105.669,187.875,105.591z
				 M191.289,104.134c-0.561,0-1.061-0.017-1.501-0.042c-0.14-1.241-0.728-6.283-1.338-9.012c0.4-0.469,0.715-1.123,0.895-1.552
				l1.036,1.821l1.185-1.627l1.189,1.691l0.655-1.459c0.163,0.313,0.427,0.726,0.771,1.007c-0.555,2.789-1.345,7.917-1.532,9.138
				C192.243,104.12,191.791,104.134,191.289,104.134z M194.613,107.495c-0.083,0.057-0.184,0.11-0.25,0.146
				c-0.547,0.14-1.745,0.23-3.046,0.23c-1.328,0-2.533-0.093-3.027-0.222c-0.103-0.047-0.191-0.096-0.271-0.147
				c-0.172-0.117-0.269-0.238-0.269-0.337c0-0.065,0.043-0.141,0.125-0.221c0.361,0.179,1.254,0.354,3.442,0.354
				c2.173,0,3.067-0.172,3.435-0.351c0.079,0.077,0.123,0.152,0.123,0.218C194.875,107.262,194.784,107.379,194.613,107.495z
				 M198.656,93.522c-0.03,0.354-0.091,0.705-0.184,1.05c-0.411,1.633-1.353,3.19-2.04,4.323c-0.189,0.315-0.362,0.599-0.502,0.85
				c-0.906,1.617-1.196,3.341-1.273,3.957h-0.03v0.148c-0.193,0.078-0.737,0.167-1.542,0.225c0.2-1.322,0.949-6.158,1.481-8.877
				c0.081,0.034,0.163,0.058,0.248,0.071c0.468,0.078,0.923-0.147,1.358-0.668c0.697-0.839,0.599-1.377,0.478-1.623
				c-0.157-0.321-0.516-0.521-0.931-0.495c-0.5,0.018-0.941,0.323-1.125,0.78c-0.082,0.2-0.189,0.629-0.313,1.211
				c-0.336-0.354-0.584-0.863-0.677-1.107l-0.186-0.476l-0.746,1.665l-1.105-1.566l-1.143,1.576l-1.161-2.043l-0.155,0.441
				c-0.122,0.344-0.419,1.05-0.787,1.584c-0.13-0.499-0.257-0.877-0.382-1.078c-0.31-0.5-0.65-0.525-0.826-0.496
				c-0.343,0.058-0.637,0.409-0.747,0.895c-0.113,0.507-0.026,1.196,0.565,1.611c0.25,0.176,0.528,0.222,0.801,0.134
				c0.125-0.04,0.244-0.107,0.36-0.194c0.484,2.296,0.986,6.188,1.262,8.645c-0.735-0.059-1.237-0.144-1.412-0.217
				c-0.049-0.44-0.305-2.337-1.294-4.102c-0.138-0.252-0.311-0.537-0.504-0.85c-0.684-1.135-1.625-2.692-2.038-4.329
				c-0.093-0.341-0.151-0.694-0.182-1.046c-0.014-0.155-0.024-0.31-0.032-0.503h0.006c-0.002-0.366,0.035-0.731,0.113-1.091
				c0.608-3.156,3.668-5.449,7.277-5.449c3.608,0,6.67,2.293,7.28,5.454c0.076,0.353,0.111,0.718,0.109,1.116
				C198.681,93.207,198.672,93.363,198.656,93.522z M194.651,94.77c0.137-0.655,0.254-1.14,0.337-1.347
				c0.148-0.367,0.483-0.506,0.747-0.514c0.248-0.012,0.452,0.089,0.532,0.256c0.131,0.264-0.024,0.687-0.423,1.164
				c-0.329,0.396-0.651,0.574-0.958,0.521C194.805,94.836,194.728,94.81,194.651,94.77z M187.99,94.954
				c-0.125,0.124-0.256,0.213-0.385,0.255c-0.149,0.047-0.284,0.023-0.428-0.077c-0.419-0.295-0.478-0.797-0.393-1.168
				c0.066-0.302,0.237-0.542,0.401-0.57c0.01-0.002,0.02-0.003,0.029-0.003c0.151,0,0.291,0.188,0.363,0.304
				C187.71,93.903,187.849,94.349,187.99,94.954z"/>
		</g>
		<g>
			<path style="fill:#96CA4E;" d="M332.113,69.578c0,9.069-7.352,16.42-16.42,16.42c-9.069,0-16.42-7.351-16.42-16.42
				c0-9.07,7.35-16.422,16.42-16.422C324.762,53.156,332.113,60.508,332.113,69.578z"/>
			<g>
				<g>
					<g>
						<path style="fill:#FFFFFF;" d="M321.396,77.215l-2.821-5.368h-5.753l-2.895,5.429c0,0-0.917,1.511,1.478,1.511
							c2.395,0,5.725,0.047,8.149,0.015C322.373,78.768,321.396,77.215,321.396,77.215z"/>
					</g>
				</g>
				<g>
					<path style="fill:#FFFFFF;" d="M321.888,77.292l-4.227-7.995v-8.088c0.292-0.059,0.512-0.317,0.512-0.627
						c0-0.353-0.286-0.639-0.639-0.639h-3.683c-0.353,0-0.641,0.287-0.641,0.639c0,0.305,0.216,0.562,0.502,0.626v8.089
						l-4.221,7.984c-0.042,0.067-0.405,0.687-0.099,1.24c0.256,0.458,0.891,0.692,1.884,0.692h8.82c1.006,0,1.647-0.234,1.898-0.697
						C322.311,77.942,321.89,77.292,321.888,77.292z M313.507,60.582c0-0.188,0.153-0.342,0.345-0.342h3.683
						c0.189,0,0.344,0.154,0.344,0.342c0,0.189-0.154,0.344-0.344,0.344h-3.683C313.66,60.926,313.507,60.771,313.507,60.582z
						 M321.736,78.373c-0.193,0.355-0.762,0.543-1.639,0.543h-8.82c-0.866,0-1.427-0.187-1.626-0.54
						c-0.228-0.412,0.08-0.919,0.099-0.949l4.242-8.024l0.017-0.032v-8.134h3.355v8.134l4.271,8.073
						C321.638,77.45,321.964,77.959,321.736,78.373z"/>
				</g>
			</g>
		</g>
		<g>
			<path style="fill:#98D6D6;" d="M233.866,48.43c0,8.259-6.695,14.953-14.953,14.953c-8.259,0-14.952-6.694-14.952-14.953
				c0-8.258,6.693-14.952,14.952-14.952C227.171,33.478,233.866,40.172,233.866,48.43z"/>
			<g>
				<path style="fill:#FFFFFF;" d="M211.98,40.946v15.917h13.864V40.946H211.98z M212.964,42.511c-0.242,0-0.436-0.195-0.436-0.437
					c0-0.24,0.193-0.436,0.436-0.436c0.241,0,0.436,0.195,0.436,0.436C213.399,42.315,213.205,42.511,212.964,42.511z
					 M214.945,42.511c-0.24,0-0.436-0.195-0.436-0.437c0-0.24,0.195-0.436,0.436-0.436c0.243,0,0.439,0.195,0.439,0.436
					C215.384,42.315,215.189,42.511,214.945,42.511z M216.93,42.511c-0.241,0-0.437-0.195-0.437-0.437
					c0-0.24,0.195-0.436,0.437-0.436c0.242,0,0.436,0.195,0.436,0.436C217.365,42.315,217.172,42.511,216.93,42.511z
					 M218.913,42.511c-0.241,0-0.436-0.195-0.436-0.437c0-0.24,0.194-0.436,0.436-0.436c0.24,0,0.436,0.195,0.436,0.436
					C219.349,42.315,219.153,42.511,218.913,42.511z M220.895,42.511c-0.238,0-0.436-0.195-0.436-0.437
					c0-0.24,0.197-0.436,0.436-0.436c0.242,0,0.438,0.195,0.438,0.436C221.332,42.315,221.137,42.511,220.895,42.511z
					 M222.878,42.511c-0.24,0-0.436-0.195-0.436-0.437c0-0.24,0.195-0.436,0.436-0.436c0.242,0,0.438,0.195,0.438,0.436
					C223.316,42.315,223.12,42.511,222.878,42.511z M224.861,42.511c-0.24,0-0.436-0.195-0.436-0.437
					c0-0.24,0.195-0.436,0.436-0.436c0.243,0,0.436,0.195,0.436,0.436C225.298,42.315,225.105,42.511,224.861,42.511z"/>
				<path style="fill:#FFFFFF;" d="M213.182,41.966c0,0.106-0.087,0.192-0.193,0.192l0,0c-0.107,0-0.193-0.086-0.193-0.192V40.19
					c0-0.106,0.086-0.192,0.193-0.192l0,0c0.106,0,0.193,0.086,0.193,0.192V41.966z"/>
				<path style="fill:#FFFFFF;" d="M219.107,41.966c0,0.106-0.088,0.192-0.193,0.192l0,0c-0.106,0-0.191-0.086-0.191-0.192V40.19
					c0-0.106,0.085-0.192,0.191-0.192l0,0c0.105,0,0.193,0.086,0.193,0.192V41.966z"/>
				<path style="fill:#FFFFFF;" d="M223.094,41.966c0,0.106-0.087,0.192-0.193,0.192l0,0c-0.105,0-0.191-0.086-0.191-0.192V40.19
					c0-0.106,0.086-0.192,0.191-0.192l0,0c0.106,0,0.193,0.086,0.193,0.192V41.966z"/>
				<path style="fill:#FFFFFF;" d="M225.074,41.966c0,0.106-0.086,0.192-0.191,0.192l0,0c-0.106,0-0.193-0.086-0.193-0.192V40.19
					c0-0.106,0.087-0.192,0.193-0.192l0,0c0.105,0,0.191,0.086,0.191,0.192V41.966z"/>
				<path style="fill:#FFFFFF;" d="M221.11,41.966c0,0.106-0.087,0.192-0.193,0.192l0,0c-0.106,0-0.191-0.086-0.191-0.192V40.19
					c0-0.106,0.086-0.192,0.191-0.192l0,0c0.106,0,0.193,0.086,0.193,0.192V41.966z"/>
				<path style="fill:#FFFFFF;" d="M217.145,41.966c0,0.106-0.086,0.192-0.191,0.192l0,0c-0.108,0-0.193-0.086-0.193-0.192V40.19
					c0-0.106,0.085-0.192,0.193-0.192l0,0c0.105,0,0.191,0.086,0.191,0.192V41.966z"/>
				<path style="fill:#FFFFFF;" d="M215.173,41.966c0,0.106-0.085,0.192-0.191,0.192l0,0c-0.105,0-0.193-0.086-0.193-0.192V40.19
					c0-0.106,0.088-0.192,0.193-0.192l0,0c0.106,0,0.191,0.086,0.191,0.192V41.966z"/>
			</g>
		</g>
		<path style="fill:#FFFFFF;" d="M372.022,23.478H361.08h-6.839H343.3c-0.851,0-0.841,0.833-0.841,0.833v3.232v13.303v3.232
			c0,0-0.01,0.831,0.841,0.831h10.941h0.17v0.687v0.883c0,0-0.037,1.276-1.105,1.719c-1.067,0.444-4.917,1.274-4.917,1.274
			s-0.42,0.168-0.401,0.389c0,0,0,0.007,0,0.017v0.351c0,0,0.026,0.142,0.232,0.153h6.242h6.401h6.244
			c0.203-0.011,0.228-0.153,0.228-0.153v-0.368l0,0c0.018-0.22-0.401-0.389-0.401-0.389s-3.85-0.831-4.916-1.274
			c-1.069-0.443-1.108-1.719-1.108-1.719v-0.883v-0.687h0.172h10.941c0.851,0,0.841-0.831,0.841-0.831v-3.232V27.543v-3.232
			C372.862,24.311,372.872,23.478,372.022,23.478z M371.933,40.311H343.39V25.719h28.543V40.311z"/>
		<g>
			<path style="fill:#F6C648;" d="M298.419,32.731c0,15.699-12.728,28.426-28.426,28.426c-15.7,0-28.426-12.727-28.426-28.426
				c0-15.699,12.726-28.425,28.426-28.425C285.691,4.306,298.419,17.032,298.419,32.731z"/>
			<path style="fill:#FFFFFF;" d="M269.993,16.715c-8.832,0-16.017,7.185-16.017,16.016c0,8.833,7.185,16.017,16.017,16.017
				s16.017-7.185,16.017-16.017C286.01,23.899,278.825,16.715,269.993,16.715z M260.492,44.684c0.03-0.047,0.051-0.093,0.042-0.128
				c-0.147-0.657,0.323-0.817,0.284-1.387c-0.056-0.748,0.002-0.843-0.072-1.547c-0.163-1.554,0.708-2.025,1.558-2.871
				c1.047-1.045,1.655-1.942,0.184-2.817c-0.889-0.53-1.777-1.03-2.719-1.46c-1.495-0.677-1.512-2.531-1.544-4.005
				c-0.046-2.143-1.62-1.642-3.104-1.21c1.288-5.512,5.557-9.887,11.011-11.315c0.347,1.022,0.969,2.07,0.816,3.166
				c-0.079,0.573,0.314,0.662,0.762,0.805c1.34,0.426,2.525,1.113,3.53,2.091c0.632,0.617,1.309,2.617,2.324,2.846
				c1.691,0.383,3.396-0.261,4.355-1.753c0.341-0.533,1.163-3.066,1.5-3.02c0.406,0.056,0.675,0.031,0.953-0.162
				c0.076-0.031,0.155-0.093,0.226-0.167c1.37,1.325,2.493,2.904,3.299,4.658c-1.768,1.328-3.638,2.503-5.425,3.801
				c-0.956,0.698-2.177,1.65-2.455,2.886c-0.19,0.831-0.193,1.656-0.267,2.502c-0.15,1.7-2.616,1.667-3.74,1.819
				c-1.157,0.155-2.596,0.237-3.223,1.354c-0.472,0.84,0.544,2.017,0.919,2.673c1.04,1.813,1.628,1.098,3.38,0.457
				c0.716-0.262,1.417-0.437,2.062-0.849c0.729-0.463,1.843-1.642,2.199-0.266c0.427,1.653,0.377,3.158,1.944,4.049
				c-2.581,1.988-5.798,3.184-9.299,3.184C266.401,48.017,263.103,46.763,260.492,44.684z"/>
		</g>
		<g>
			<path style="fill:#7B55A3;" d="M260.758,80.671c0,9.187-7.45,16.635-16.637,16.635c-9.186,0-16.634-7.448-16.634-16.635
				c0-9.186,7.447-16.634,16.634-16.634C253.308,64.037,260.758,71.485,260.758,80.671z"/>
			<path style="fill:#FFFFFF;" d="M254.204,75.003c-0.079-0.347-0.436-0.936-0.929-1.539c-0.48-0.585-1.172-1.268-1.549-1.268
				c-0.058,0-0.106,0.017-0.152,0.046c-0.002,0.001-0.004-0.002-0.007-0.002c-0.139,0.044-0.273,0.13-0.402,0.26l-1.184,0.97
				c-0.177-0.031-0.33-0.003-0.439,0.087c-0.089,0.073-0.179,0.209-0.173,0.457l-0.193,0.174c-0.202-0.049-0.377-0.024-0.496,0.075
				c-0.085,0.07-0.167,0.196-0.174,0.418l-12.594,10.314c-0.047,0.036-0.066,0.096-0.053,0.153l0.002,0.002
				c-0.294,0.48-0.843,1.404-1.258,2.24c-0.036,0.014-0.068,0.035-0.085,0.071c-0.499,1.007-0.521,1.315-0.485,1.473
				c0.012,0.046,0.03,0.089,0.059,0.122c0.046,0.056,0.107,0.09,0.269,0.09c0.243,0,0.707-0.075,1.418-0.232
				c0.039-0.008,0.069-0.034,0.089-0.066c1.014-0.226,2.161-0.531,2.506-0.623c0.023,0.012,0.048,0.022,0.074,0.022
				c0.034,0,0.07-0.013,0.097-0.035l12.587-10.309c0.054,0.008,0.101,0.014,0.146,0.014l0,0c0.123,0,0.227-0.034,0.309-0.101
				c0.129-0.104,0.188-0.273,0.176-0.499c0-0.003-0.005-0.007-0.005-0.01c0.053-0.062,0.095-0.111,0.125-0.149
				c0.093,0.028,0.182,0.049,0.263,0.049c0.121,0,0.225-0.034,0.308-0.101c0.079-0.065,0.166-0.196,0.168-0.428l1.36-1.113
				c0.02-0.014,0.108-0.095,0.171-0.211c0-0.001,0-0.003,0-0.003C254.222,75.276,254.24,75.161,254.204,75.003z M253.039,73.66
				c0.451,0.55,0.8,1.118,0.867,1.412c0.006,0.026,0.008,0.046,0.01,0.061c-0.155-0.044-0.617-0.354-1.273-1.152
				c-0.448-0.55-0.799-1.119-0.867-1.414c-0.006-0.026-0.008-0.046-0.01-0.061C251.921,72.552,252.386,72.862,253.039,73.66z
				 M251.372,72.729c0.038-0.038,0.07-0.064,0.105-0.091c0.082,0.348,0.438,0.936,0.929,1.538c0.149,0.181,0.826,0.983,1.318,1.207
				l-1.369,1.12c-0.232,0.118-0.91-0.223-1.556-1.009c-0.364-0.443-0.621-0.914-0.709-1.294c-0.049-0.214-0.036-0.386,0.036-0.453
				c0.002,0,0.004-0.003,0.004-0.004L251.372,72.729z M248.553,75.038c0.07,0.273,0.222,0.591,0.421,0.921l-12.042,9.863
				c0.032-0.146,0.034-0.288,0.002-0.42c-0.024-0.116-0.076-0.226-0.151-0.323c-0.068-0.091-0.157-0.153-0.26-0.186L248.553,75.038z
				 M234.368,88.886c-0.038,0-0.061-0.001-0.073-0.001c-0.004,0-0.006,0-0.008,0c-0.063-0.114,0.105-0.56,0.392-1.16
				c0.056,0.107,0.112,0.211,0.181,0.308c0.186,0.269,0.42,0.5,0.672,0.67C235.025,88.811,234.59,88.886,234.368,88.886z
				 M235.817,88.63c-0.293-0.159-0.572-0.414-0.784-0.721c-0.093-0.131-0.168-0.274-0.234-0.431c0.333-0.66,0.784-1.462,1.246-2.217
				c0.016-0.004,0.03-0.009,0.042-0.014c0-0.002,0.131-0.075,0.263-0.075c0.082,0,0.143,0.029,0.189,0.089
				c0.049,0.065,0.081,0.135,0.098,0.209c0.093,0.399-0.297,0.836-0.299,0.838c-0.034,0.036-0.051,0.09-0.04,0.114
				c0,0.007,0,0.014,0,0.022c0.014,0.072,0.076,0.123,0.151,0.123c0.008,0,0.027-0.001,0.034-0.003
				c0.034-0.008,0.064-0.028,0.088-0.054c0.017-0.017,0.053-0.045,0.1-0.083l0.231-0.187c0.089-0.04,0.186-0.073,0.278-0.073
				c0.131,0,0.235,0.056,0.32,0.17c0.199,0.267,0.072,0.551-0.076,0.745l-0.255,0.212c-0.04,0.032-0.06,0.08-0.05,0.145h-0.004
				c0.014,0.074,0.076,0.127,0.15,0.127c0.013,0,0.025,0,0.031-0.003c0.014-0.003,0.031-0.011,0.048-0.02
				c0.205-0.098,0.544-0.21,0.83-0.21c0.113,0,0.267,0.019,0.349,0.112c0.022,0.025,0.036,0.051,0.043,0.079
				c0.038,0.161-0.155,0.389-0.224,0.456c-0.009,0.009-0.009,0.022-0.015,0.032c-0.324,0.088-1.489,0.397-2.501,0.623
				C235.823,88.637,235.823,88.632,235.817,88.63z M237.671,86.212c-0.112-0.149-0.26-0.233-0.429-0.249l11.897-9.744
				c0.092,0.132,0.188,0.265,0.294,0.394c0.108,0.13,0.218,0.252,0.33,0.367L237.8,86.78
				C237.835,86.596,237.813,86.4,237.671,86.212z M238.876,87.546c0-0.031-0.006-0.059-0.012-0.086
				c-0.02-0.079-0.057-0.152-0.11-0.213c-0.127-0.144-0.323-0.216-0.585-0.216c-0.07,0-0.141,0.005-0.21,0.014l12.024-9.849
				c0.208,0.194,0.418,0.361,0.621,0.483c0.063,0.041,0.127,0.075,0.189,0.105L238.876,87.546z M250.762,77.419
				c-0.351-0.216-0.737-0.571-1.091-1.002c-0.427-0.518-0.737-1.077-0.834-1.49c-0.047-0.209-0.034-0.366,0.036-0.423
				c0.024-0.02,0.063-0.028,0.106-0.029c-0.027,0.142-0.012,0.379,0.145,0.776c0.274,0.711,1.391,2.055,1.941,2.23
				c0.023,0.01,0.154,0.06,0.298,0.06c0.017,0,0.034-0.006,0.051-0.008c-0.007,0.015-0.011,0.039-0.023,0.048
				C251.3,77.654,251.05,77.593,250.762,77.419z M251.58,77.186c-0.032,0.008-0.06,0.028-0.072,0.059l-0.02,0.043
				c-0.072,0.068-0.26,0.026-0.349-0.009c-0.49-0.155-1.563-1.458-1.816-2.105c-0.181-0.464-0.143-0.649-0.121-0.704
				c0.001,0,0.005-0.001,0.005-0.001c0.036-0.002,0.068-0.024,0.088-0.055c0.003-0.008,0.013-0.032,0.017-0.058l0.093-0.081
				c0,0.004,0,0.008,0.002,0.014c0.104,0.456,0.438,1.062,0.893,1.617c0.46,0.559,0.955,0.976,1.375,1.173
				C251.645,77.111,251.614,77.147,251.58,77.186z M252.257,76.873c-0.189,0.157-0.979-0.257-1.721-1.162
				c-0.426-0.52-0.736-1.078-0.833-1.492c-0.05-0.211-0.036-0.366,0.034-0.425c0.011-0.01,0.024-0.017,0.041-0.022
				c-0.036,0.136-0.03,0.302,0.014,0.499c0.099,0.422,0.379,0.939,0.77,1.417c0.586,0.715,1.268,1.159,1.727,1.146
				C252.281,76.849,252.27,76.861,252.257,76.873z"/>
		</g>
		<g>
			<path style="fill:#4FAEE1;" d="M191.473,54.392c0,14.514-11.766,26.28-26.279,26.28s-26.279-11.766-26.279-26.28
				s11.766-26.279,26.279-26.279S191.473,39.878,191.473,54.392z"/>
			<g>
				<path style="fill:#FFFFFF;" d="M165.193,39.208c-8.372,0-15.185,6.812-15.185,15.184c0,8.374,6.813,15.185,15.185,15.185
					s15.183-6.811,15.183-15.185C180.376,46.02,173.566,39.208,165.193,39.208z M165.193,67.983
					c-7.495,0-13.592-6.098-13.592-13.592c0-7.494,6.097-13.591,13.592-13.591c7.493,0,13.592,6.098,13.592,13.591
					C178.785,61.886,172.686,67.983,165.193,67.983z"/>
				<path style="fill:#FFFFFF;" d="M165.193,42.772c0.43,0,0.782-0.351,0.782-0.781c0-0.432-0.353-0.783-0.782-0.783
					c-0.432,0-0.782,0.351-0.782,0.783C164.411,42.421,164.762,42.772,165.193,42.772z"/>
				<path style="fill:#FFFFFF;" d="M165.193,66.054c-0.432,0-0.782,0.351-0.782,0.781c0,0.432,0.351,0.783,0.782,0.783
					c0.43,0,0.782-0.351,0.782-0.783C165.976,66.405,165.623,66.054,165.193,66.054z"/>
				<path style="fill:#FFFFFF;" d="M177.616,53.631c-0.433,0-0.781,0.35-0.781,0.783c0,0.431,0.349,0.781,0.781,0.781
					c0.432,0,0.782-0.351,0.782-0.781C178.398,53.981,178.048,53.631,177.616,53.631z"/>
				<path style="fill:#FFFFFF;" d="M152.77,53.631c-0.432,0-0.782,0.35-0.782,0.783c0,0.431,0.351,0.781,0.782,0.781
					c0.431,0,0.783-0.351,0.783-0.781C153.554,53.981,153.201,53.631,152.77,53.631z"/>
				<path style="fill:#FFFFFF;" d="M171.345,44.075c0.193,0.117,0.445,0.053,0.56-0.141c0.117-0.195,0.053-0.446-0.141-0.563
					c-0.193-0.114-0.445-0.051-0.561,0.144C171.087,43.708,171.149,43.96,171.345,44.075z"/>
				<path style="fill:#FFFFFF;" d="M159.042,64.697c-0.195-0.115-0.445-0.051-0.561,0.143c-0.116,0.192-0.052,0.443,0.142,0.56
					c0.193,0.116,0.445,0.052,0.561-0.142C159.3,65.065,159.237,64.813,159.042,64.697z"/>
				<path style="fill:#FFFFFF;" d="M176.066,60.395c-0.195-0.116-0.445-0.052-0.562,0.142c-0.115,0.195-0.053,0.446,0.143,0.561
					c0.193,0.116,0.443,0.053,0.56-0.142C176.324,60.763,176.26,60.511,176.066,60.395z"/>
				<path style="fill:#FFFFFF;" d="M154.739,47.674c-0.193-0.115-0.445-0.052-0.561,0.143c-0.115,0.192-0.053,0.444,0.142,0.56
					c0.195,0.117,0.445,0.051,0.562-0.141C154.997,48.042,154.933,47.791,154.739,47.674z"/>
				<path style="fill:#FFFFFF;" d="M175.89,48.071c-0.196,0.11-0.27,0.356-0.161,0.555c0.108,0.2,0.357,0.271,0.556,0.163
					c0.197-0.108,0.271-0.358,0.163-0.554C176.337,48.038,176.089,47.962,175.89,48.071z"/>
				<path style="fill:#FFFFFF;" d="M154.103,59.984c-0.196,0.107-0.27,0.356-0.163,0.554c0.108,0.199,0.356,0.271,0.556,0.163
					c0.199-0.109,0.272-0.357,0.163-0.554C154.55,59.948,154.302,59.875,154.103,59.984z"/>
				<path style="fill:#FFFFFF;" d="M170.953,64.92c-0.197,0.108-0.271,0.358-0.163,0.556c0.107,0.199,0.357,0.273,0.555,0.165
					c0.199-0.108,0.273-0.358,0.163-0.556C171.399,64.887,171.151,64.813,170.953,64.92z"/>
				<path style="fill:#FFFFFF;" d="M159.04,43.134c-0.197,0.107-0.271,0.357-0.163,0.555c0.11,0.198,0.358,0.271,0.557,0.163
					c0.197-0.109,0.271-0.357,0.163-0.556C159.487,43.099,159.239,43.026,159.04,43.134z"/>
				<path style="fill:#FFFFFF;" d="M172.527,53.898l-2.355-1.177c-0.1-0.052-0.227-0.046-0.325,0.014
					c-0.099,0.062-0.157,0.168-0.157,0.284v0.688h-2.965c-0.209-0.44-0.604-0.773-1.082-0.905v-4.788h0.69
					c0.115,0,0.22-0.058,0.282-0.154c0.061-0.096,0.068-0.216,0.018-0.321l-1.097-2.355c-0.055-0.114-0.172-0.19-0.307-0.192
					c-0.127,0.004-0.239,0.074-0.296,0.186l-1.178,2.354c-0.052,0.105-0.046,0.225,0.015,0.324c0.061,0.099,0.169,0.159,0.284,0.159
					h0.688v4.788c-0.718,0.197-1.25,0.851-1.25,1.632c0,0.938,0.764,1.7,1.701,1.7c0.877,0,1.596-0.673,1.683-1.526h2.813v0.69
					c0,0.114,0.057,0.218,0.153,0.281c0.055,0.033,0.117,0.052,0.182,0.052c0.048,0,0.095-0.012,0.141-0.031l2.352-1.101
					c0.115-0.053,0.191-0.17,0.193-0.304C172.707,54.067,172.637,53.953,172.527,53.898z M164.903,47.695h-0.849
					c-0.004,0-0.008-0.002-0.012-0.007c0-0.003-0.001-0.009,0-0.013l1.179-2.354c0-0.001,0.008-0.007,0.01-0.007
					c0.006,0,0.011,0.003,0.011,0.007l1.102,2.354c0,0.004,0,0.01-0.002,0.013c-0.002,0.004-0.006,0.007-0.01,0.007h-0.849
					c-0.089,0-0.163,0.071-0.163,0.159v4.893c-0.044-0.002-0.083-0.014-0.127-0.014c-0.046,0-0.085,0.011-0.129,0.015v-4.895
					C165.064,47.766,164.992,47.695,164.903,47.695z M172.383,54.208l-2.354,1.099c-0.002,0.001-0.004,0.001-0.004,0.001
					l-0.008-0.001c-0.004-0.003-0.007-0.006-0.007-0.009v-0.851c0-0.088-0.07-0.16-0.159-0.16h-2.973
					c-0.008-0.087-0.02-0.173-0.038-0.257h3.011c0.089,0,0.159-0.072,0.159-0.162V53.02c0-0.004,0.003-0.006,0.005-0.009
					c0.002,0,0.014-0.001,0.014-0.001l2.354,1.177c0.002,0.001,0.008,0.009,0.008,0.012
					C172.391,54.202,172.385,54.208,172.383,54.208z"/>
			</g>
		</g>
		<path style="fill:#FFFFFF;" d="M283.587,86.3v17.232h11.746V86.3H283.587z M289.029,103.246c-0.229,0-0.415-0.186-0.415-0.415
			c0-0.228,0.186-0.415,0.415-0.415s0.415,0.187,0.415,0.415C289.444,103.06,289.259,103.246,289.029,103.246z M294.832,102.057
			h-10.745V87.019h10.745V102.057z"/>
		<g>
			<path style="fill:#64C6BB;" d="M399.698,108.377c0,11.839-9.598,21.438-21.439,21.438c-11.839,0-21.436-9.598-21.436-21.438
				c0-11.839,9.598-21.438,21.436-21.438C390.101,86.939,399.698,96.538,399.698,108.377z"/>
			<g>
				<g>
					<path style="fill:#FFFFFF;" d="M378.262,123.021c-5.335,0-9.675-4.338-9.675-9.672c0-4.48,3.139-8.417,7.483-9.424v-8.807
						c0-0.11,0.091-0.203,0.2-0.203h3.978c0.114,0,0.205,0.093,0.205,0.203v8.807c4.344,1.007,7.479,4.943,7.479,9.424
						C387.934,118.683,383.595,123.021,378.262,123.021z M376.476,95.321v8.766c0,0.096-0.068,0.178-0.161,0.197
						c-4.244,0.907-7.322,4.719-7.322,9.065c0,5.109,4.158,9.269,9.27,9.269c5.109,0,9.269-4.16,9.269-9.269
						c0-4.346-3.081-8.158-7.322-9.065c-0.095-0.02-0.159-0.102-0.159-0.197v-8.766H376.476z"/>
				</g>
				<path style="fill:#FFFFFF;" d="M371.145,108.632c-0.923,1.366-1.463,3.011-1.463,4.786c0,4.738,3.84,8.579,8.58,8.579
					c4.736,0,8.578-3.84,8.578-8.579c0-1.774-0.539-3.419-1.462-4.786H371.145z"/>
				<g>
					<g style="opacity:0.6;">
						<g>
							<g>
								<g>
									<path style="fill:#FFFFFF;" d="M380.259,95.244h-3.998c-0.416,0-0.754-0.339-0.754-0.758c0-0.416,0.338-0.754,0.754-0.754
										h3.998c0.417,0,0.756,0.338,0.756,0.754C381.015,94.905,380.676,95.244,380.259,95.244z M376.261,94.136
										c-0.192,0-0.348,0.157-0.348,0.35c0,0.194,0.155,0.352,0.348,0.352h3.998c0.195,0,0.353-0.158,0.353-0.352
										c0-0.192-0.157-0.35-0.353-0.35H376.261z"/>
								</g>
							</g>
						</g>
					</g>
				</g>
			</g>
		</g>
	</g>
	<g>
		<g>
			<linearGradient id="SVGID_1_" gradientUnits="userSpaceOnUse" x1="276.7129" y1="-95.9456" x2="276.7129" y2="1052.3679">
				<stop  offset="0" style="stop-color:#D9D9D9"/>
				<stop  offset="0.0961" style="stop-color:#CFCFCF"/>
				<stop  offset="0.2579" style="stop-color:#B5B5B5"/>
				<stop  offset="0.4657" style="stop-color:#8A8A8A"/>
				<stop  offset="0.7114" style="stop-color:#4F4F4F"/>
				<stop  offset="0.9863" style="stop-color:#040404"/>
				<stop  offset="1" style="stop-color:#000000"/>
			</linearGradient>
			<path style="fill:url(#SVGID_1_);" d="M175.881,187.447h221.521l4.194,2.182l34.803,83.395c0,0-318.867,4.485-319.373-2.734
				L175.881,187.447z"/>
			
				<linearGradient id="SVGID_00000152234406720986798560000016085792802754405311_" gradientUnits="userSpaceOnUse" x1="306.1401" y1="-91.4584" x2="306.1401" y2="1038.6729">
				<stop  offset="0" style="stop-color:#D9D9D9"/>
				<stop  offset="0.0961" style="stop-color:#CFCFCF"/>
				<stop  offset="0.2579" style="stop-color:#B5B5B5"/>
				<stop  offset="0.4657" style="stop-color:#8A8A8A"/>
				<stop  offset="0.7114" style="stop-color:#4F4F4F"/>
				<stop  offset="0.9863" style="stop-color:#040404"/>
				<stop  offset="1" style="stop-color:#000000"/>
			</linearGradient>
			<path style="fill:url(#SVGID_00000152234406720986798560000016085792802754405311_);" d="M175.881,187.447h221.521l4.194,2.182
				l34.803,83.395c0,0-39.749-75.388-40.255-82.607L175.881,187.447z"/>
			
				<linearGradient id="SVGID_00000127013740633724017550000007536721974473557651_" gradientUnits="userSpaceOnUse" x1="276.7129" y1="-95.9456" x2="276.7129" y2="1052.3679">
				<stop  offset="0" style="stop-color:#D9D9D9"/>
				<stop  offset="0.0961" style="stop-color:#CFCFCF"/>
				<stop  offset="0.2579" style="stop-color:#B5B5B5"/>
				<stop  offset="0.4657" style="stop-color:#8A8A8A"/>
				<stop  offset="0.7114" style="stop-color:#4F4F4F"/>
				<stop  offset="0.9863" style="stop-color:#040404"/>
				<stop  offset="1" style="stop-color:#000000"/>
			</linearGradient>
			<path style="fill:url(#SVGID_00000127013740633724017550000007536721974473557651_);" d="M175.881,187.447l-52.327,78.92
				l306.902,3.566l5.943,3.091c0,0-318.867,4.485-319.373-2.734L175.881,187.447z"/>
			<path style="fill:#797A7D;" d="M100.12,24.565c-0.445-0.975-1.461-1.494-2.471-1.366l-0.013-0.03L8.594,40.327l0.261,3.776
				l97.94,212.52l9.048,16.549l1.695-2.415l58.343-83.31c0.045-0.036,0.371-0.6,0.007-1.487
				C169.361,170.042,100.12,24.565,100.12,24.565z"/>
			
				<linearGradient id="SVGID_00000050661609668063415880000013526527834759527586_" gradientUnits="userSpaceOnUse" x1="71.5634" y1="152.2733" x2="33.4154" y2="170.8126">
				<stop  offset="0" style="stop-color:#D9D9D9"/>
				<stop  offset="0.0961" style="stop-color:#CFCFCF"/>
				<stop  offset="0.2579" style="stop-color:#B5B5B5"/>
				<stop  offset="0.4657" style="stop-color:#8A8A8A"/>
				<stop  offset="0.7114" style="stop-color:#4F4F4F"/>
				<stop  offset="0.9863" style="stop-color:#040404"/>
				<stop  offset="1" style="stop-color:#000000"/>
			</linearGradient>
			<path style="fill:url(#SVGID_00000050661609668063415880000013526527834759527586_);" d="M116.726,269.264
				c0.764,1.671,0.026,3.647-1.646,4.41l0,0c-1.673,0.762-3.645,0.025-4.408-1.646L6.947,44.735
				c-0.764-1.673-0.026-3.646,1.646-4.408l0,0c1.673-0.764,3.645-0.028,4.408,1.645L116.726,269.264z"/>
			
				<linearGradient id="SVGID_00000129899619912098746630000010353411021047171222_" gradientUnits="userSpaceOnUse" x1="19.8138" y1="179.1689" x2="157.6906" y2="103.0996">
				<stop  offset="0.0024" style="stop-color:#00A5BC"/>
				<stop  offset="0.1203" style="stop-color:#0995AC"/>
				<stop  offset="0.3514" style="stop-color:#206B81"/>
				<stop  offset="0.3652" style="stop-color:#21687E"/>
				<stop  offset="0.5531" style="stop-color:#114460"/>
				<stop  offset="0.7142" style="stop-color:#05294A"/>
				<stop  offset="0.7969" style="stop-color:#031B31"/>
				<stop  offset="0.929" style="stop-color:#01070D"/>
				<stop  offset="1" style="stop-color:#000000"/>
			</linearGradient>
			<polygon style="fill:url(#SVGID_00000129899619912098746630000010353411021047171222_);" points="16.581,42.616 117.026,263.871 
				173.83,185.96 97.345,25.501 			"/>
			<polygon style="fill:#FFFFFF;" points="97.345,25.501 170.667,185.947 117.026,263.871 117.842,262.755 173.83,185.96 			"/>
			<g>
				
					<linearGradient id="SVGID_00000098913825305189685210000016501968719090167188_" gradientUnits="userSpaceOnUse" x1="416.9009" y1="-95.9463" x2="416.9009" y2="1052.3639">
					<stop  offset="0" style="stop-color:#D9D9D9"/>
					<stop  offset="0.0961" style="stop-color:#CFCFCF"/>
					<stop  offset="0.2579" style="stop-color:#B5B5B5"/>
					<stop  offset="0.4657" style="stop-color:#8A8A8A"/>
					<stop  offset="0.7114" style="stop-color:#4F4F4F"/>
					<stop  offset="0.9863" style="stop-color:#040404"/>
					<stop  offset="1" style="stop-color:#000000"/>
				</linearGradient>
				<path style="fill:url(#SVGID_00000098913825305189685210000016501968719090167188_);" d="M432.911,273.071
					c2.273-0.029,3.488-0.047,3.488-0.047l-34.803-83.395l-4.194-2.182l33.054,82.486L432.911,273.071z"/>
			</g>
			
				<linearGradient id="SVGID_00000106105013175631715650000012197594339517376156_" gradientUnits="userSpaceOnUse" x1="276.7129" y1="264.5844" x2="276.7129" y2="294.9021">
				<stop  offset="0" style="stop-color:#D9D9D9"/>
				<stop  offset="0.0961" style="stop-color:#CFCFCF"/>
				<stop  offset="0.2579" style="stop-color:#B5B5B5"/>
				<stop  offset="0.4657" style="stop-color:#8A8A8A"/>
				<stop  offset="0.7114" style="stop-color:#4F4F4F"/>
				<stop  offset="0.9863" style="stop-color:#040404"/>
				<stop  offset="1" style="stop-color:#000000"/>
			</linearGradient>
			<path style="fill:url(#SVGID_00000106105013175631715650000012197594339517376156_);" d="M127.452,269.933h303.004l5.943,3.091
				v5.705c0,0-4.28,3.804-12.838,4.041H130.696c0,0-12.955-2.257-13.67-12.48L127.452,269.933z"/>
			<g>
				<g>
					<polygon style="fill:#848689;" points="192.34,237.376 189.311,243.719 202.438,243.719 205.096,237.376 					"/>
					<path style="fill:#565759;" d="M202.761,244.204h-14.219l3.492-7.313h13.791L202.761,244.204z M190.08,243.234h12.035
						l2.251-5.374h-11.72L190.08,243.234z"/>
				</g>
				<g>
					<polygon style="fill:#848689;" points="243.478,237.376 241.916,243.719 255.105,243.719 256.306,237.376 					"/>
					<path style="fill:#565759;" d="M255.508,244.204h-14.21l1.8-7.313h13.793L255.508,244.204z M242.535,243.234h12.169
						l1.016-5.374h-11.862L242.535,243.234z"/>
				</g>
				<g>
					<polygon style="fill:#848689;" points="230.665,237.376 228.741,243.719 241.916,243.719 243.478,237.376 					"/>
					<path style="fill:#565759;" d="M242.296,244.204h-14.208l2.217-7.313h13.791L242.296,244.204z M229.395,243.234h12.141
						l1.322-5.374h-11.834L229.395,243.234z"/>
				</g>
				<g>
					<polygon style="fill:#848689;" points="269.152,237.376 268.311,243.719 281.529,243.719 282.016,237.376 					"/>
					<path style="fill:#565759;" d="M281.978,244.204h-14.22l0.969-7.313h13.814L281.978,244.204z M268.864,243.234h12.216
						l0.412-5.374h-11.915L268.864,243.234z"/>
				</g>
				<g>
					<polygon style="fill:#848689;" points="256.306,237.376 255.105,243.719 268.311,243.719 269.152,237.376 					"/>
					<path style="fill:#565759;" d="M268.736,244.204H254.52l1.383-7.313h13.802L268.736,244.204z M255.691,243.234h12.194
						l0.713-5.374h-11.892L255.691,243.234z"/>
				</g>
				<g>
					<polygon style="fill:#848689;" points="217.871,237.376 215.582,243.719 228.741,243.719 230.665,237.376 					"/>
					<path style="fill:#565759;" d="M229.102,244.204h-14.21l2.639-7.313h13.788L229.102,244.204z M216.273,243.234h12.109
						l1.629-5.374h-11.799L216.273,243.234z"/>
				</g>
				<g>
					<polygon style="fill:#848689;" points="205.096,237.376 202.438,243.719 215.582,243.719 217.871,237.376 					"/>
					<path style="fill:#565759;" d="M215.923,244.204h-14.214l3.064-7.313h13.788L215.923,244.204z M203.167,243.234h12.074
						l1.939-5.374h-11.762L203.167,243.234z"/>
				</g>
				<g>
					<polygon style="fill:#848689;" points="282.016,237.376 281.529,243.719 294.763,243.719 294.897,237.376 					"/>
					<path style="fill:#565759;" d="M295.237,244.204h-14.232l0.561-7.313h13.826L295.237,244.204z M282.053,243.234h12.235
						l0.113-5.374h-11.936L282.053,243.234z"/>
				</g>
				<g>
					<polygon style="fill:#848689;" points="294.897,237.376 294.763,243.719 308.009,243.719 307.799,237.376 					"/>
					<path style="fill:#565759;" d="M308.51,244.204h-14.243l0.155-7.313h13.846L308.51,244.204z M295.258,243.234h12.25
						l-0.178-5.374h-11.959L295.258,243.234z"/>
				</g>
				<g>
					<polygon style="fill:#848689;" points="241.916,243.719 240.359,250.065 253.906,250.065 255.105,243.719 					"/>
					<path style="fill:#565759;" d="M254.309,250.55H239.74l1.795-7.316h14.156L254.309,250.55z M240.978,249.58h12.527l1.016-5.376
						h-12.224L240.978,249.58z"/>
				</g>
				<g>
					<polygon style="fill:#848689;" points="255.105,243.719 253.906,250.065 267.47,250.065 268.311,243.719 					"/>
					<path style="fill:#565759;" d="M267.895,250.55h-14.573l1.383-7.316h14.16L267.895,250.55z M254.492,249.58h12.552l0.714-5.376
						h-12.25L254.492,249.58z"/>
				</g>
				<g>
					<polygon style="fill:#848689;" points="207.754,231.03 195.369,231.03 192.34,237.376 205.096,237.376 					"/>
					<path style="fill:#565759;" d="M205.419,237.861h-13.848l3.492-7.316h13.42L205.419,237.861z M193.109,236.891h11.664
						l2.251-5.376h-11.349L193.109,236.891z"/>
				</g>
				<g>
					<polygon style="fill:#848689;" points="228.741,243.719 226.818,250.065 240.359,250.065 241.916,243.719 					"/>
					<path style="fill:#565759;" d="M240.739,250.55h-14.574l2.217-7.316h14.153L240.739,250.55z M227.473,249.58h12.506
						l1.319-5.376h-12.196L227.473,249.58z"/>
				</g>
				<g>
					<polygon style="fill:#848689;" points="189.311,243.719 186.281,250.065 199.78,250.065 202.438,243.719 					"/>
					<path style="fill:#565759;" d="M200.103,250.55h-14.59l3.492-7.316h14.162L200.103,250.55z M187.051,249.58h12.406l2.252-5.376
						h-12.092L187.051,249.58z"/>
				</g>
				<g>
					<polygon style="fill:#848689;" points="215.582,243.719 213.294,250.065 226.818,250.065 228.741,243.719 					"/>
					<path style="fill:#565759;" d="M227.179,250.55h-14.575l2.638-7.316h14.154L227.179,250.55z M213.984,249.58h12.475
						l1.629-5.376h-12.165L213.984,249.58z"/>
				</g>
				<g>
					<polygon style="fill:#848689;" points="268.311,243.719 267.47,250.065 281.04,250.065 281.529,243.719 					"/>
					<path style="fill:#565759;" d="M281.489,250.55h-14.573l0.97-7.316h14.167L281.489,250.55z M268.022,249.58h12.568l0.414-5.376
						h-12.269L268.022,249.58z"/>
				</g>
				<g>
					<polygon style="fill:#848689;" points="281.529,243.719 281.04,250.065 294.628,250.065 294.763,243.719 					"/>
					<path style="fill:#565759;" d="M295.103,250.55h-14.586l0.564-7.316h14.178L295.103,250.55z M281.565,249.58h12.589
						l0.113-5.376h-12.289L281.565,249.58z"/>
				</g>
				<g>
					<polygon style="fill:#848689;" points="283.966,211.995 284.454,205.65 273.359,205.65 272.519,211.995 					"/>
					<path style="fill:#565759;" d="M284.414,212.48h-12.448l0.969-7.314h12.043L284.414,212.48z M273.072,211.51h10.444
						l0.414-5.374h-10.146L273.072,211.51z"/>
				</g>
				<g>
					<polygon style="fill:#848689;" points="238.355,211.995 240.277,205.65 229.316,205.65 227.025,211.995 					"/>
					<path style="fill:#565759;" d="M238.715,212.48h-12.38l2.641-7.314h11.955L238.715,212.48z M227.716,211.51h10.278l1.63-5.374
						h-9.968L227.716,211.51z"/>
				</g>
				<g>
					<polygon style="fill:#848689;" points="227.025,211.995 229.316,205.65 218.386,205.65 215.727,211.995 					"/>
					<path style="fill:#565759;" d="M227.365,212.48h-12.368l3.066-7.314h11.942L227.365,212.48z M216.456,211.51h10.229l1.94-5.374
						h-9.916L216.456,211.51z"/>
				</g>
				<g>
					<polygon style="fill:#848689;" points="249.712,211.995 251.273,205.65 240.277,205.65 238.355,211.995 					"/>
					<path style="fill:#565759;" d="M250.092,212.48h-12.391l2.217-7.314h11.974L250.092,212.48z M239.008,211.51h10.324
						l1.322-5.374h-10.017L239.008,211.51z"/>
				</g>
				<g>
					<polygon style="fill:#848689;" points="215.727,211.995 218.386,205.65 207.489,205.65 204.459,211.995 					"/>
					<path style="fill:#565759;" d="M216.049,212.48h-12.358l3.492-7.314h11.933L216.049,212.48z M205.229,211.51h10.175
						l2.254-5.374h-9.862L205.229,211.51z"/>
				</g>
				<g>
					<polygon style="fill:#848689;" points="261.103,211.995 262.302,205.65 251.273,205.65 249.712,211.995 					"/>
					<path style="fill:#565759;" d="M261.504,212.48h-12.41l1.8-7.314h11.993L261.504,212.48z M250.331,211.51H260.7l1.016-5.374
						h-10.062L250.331,211.51z"/>
				</g>
				<g>
					<polygon style="fill:#848689;" points="272.519,211.995 273.359,205.65 262.302,205.65 261.103,211.995 					"/>
					<path style="fill:#565759;" d="M272.944,212.48h-12.428l1.383-7.314h12.014L272.944,212.48z M261.688,211.51h10.406
						l0.713-5.374h-10.104L261.688,211.51z"/>
				</g>
				<g>
					<polygon style="fill:#848689;" points="220.159,231.03 217.871,237.376 230.665,237.376 232.588,231.03 					"/>
					<path style="fill:#565759;" d="M231.024,237.861h-13.844l2.638-7.316h13.423L231.024,237.861z M218.561,236.891h11.743
						l1.629-5.376H220.5L218.561,236.891z"/>
				</g>
				<g>
					<polygon style="fill:#848689;" points="282.991,224.686 283.478,218.341 271.678,218.341 270.836,224.686 					"/>
					<path style="fill:#565759;" d="M283.44,225.17h-13.157l0.969-7.314h12.75L283.44,225.17z M271.39,224.2h11.153l0.412-5.374
						h-10.853L271.39,224.2z"/>
				</g>
				<g>
					<polygon style="fill:#848689;" points="270.836,224.686 271.678,218.341 259.903,218.341 258.704,224.686 					"/>
					<path style="fill:#565759;" d="M271.262,225.17h-13.143l1.383-7.314h12.729L271.262,225.17z M259.289,224.2h11.122l0.713-5.374
						h-10.819L259.289,224.2z"/>
				</g>
				<g>
					<polygon style="fill:#848689;" points="295.17,224.686 295.306,218.341 283.478,218.341 282.991,224.686 					"/>
					<path style="fill:#565759;" d="M295.645,225.17h-13.177l0.561-7.314h12.772L295.645,225.17z M283.516,224.2h11.18l0.115-5.374
						h-10.883L283.516,224.2z"/>
				</g>
				<g>
					<polygon style="fill:#848689;" points="307.372,224.686 307.158,218.341 295.306,218.341 295.17,224.686 					"/>
					<path style="fill:#565759;" d="M307.874,225.17h-13.2l0.157-7.314h12.796L307.874,225.17z M295.665,224.2h11.205l-0.181-5.374
						H295.78L295.665,224.2z"/>
				</g>
				<g>
					<polygon style="fill:#848689;" points="232.588,231.03 230.665,237.376 243.478,237.376 245.034,231.03 					"/>
					<path style="fill:#565759;" d="M243.858,237.861h-13.848l2.217-7.316h13.426L243.858,237.861z M231.318,236.891h11.778
						l1.319-5.376h-11.469L231.318,236.891z"/>
				</g>
				<g>
					<polygon style="fill:#848689;" points="234.511,224.686 236.434,218.341 224.738,218.341 222.448,224.686 					"/>
					<path style="fill:#565759;" d="M234.87,225.17h-13.112l2.641-7.314h12.688L234.87,225.17z M223.139,224.2h11.012l1.63-5.374
						h-10.702L223.139,224.2z"/>
				</g>
				<g>
					<polygon style="fill:#848689;" points="207.754,231.03 205.096,237.376 217.871,237.376 220.159,231.03 					"/>
					<path style="fill:#565759;" d="M218.212,237.861h-13.846l3.064-7.316h13.419L218.212,237.861z M205.825,236.891h11.705
						l1.938-5.376h-11.392L205.825,236.891z"/>
				</g>
				<g>
					<polygon style="fill:#848689;" points="222.448,224.686 210.412,224.686 207.754,231.03 220.159,231.03 					"/>
					<path style="fill:#565759;" d="M220.5,231.515h-13.476l3.064-7.315h13.05L220.5,231.515z M208.483,230.545h11.335l1.939-5.375
						h-11.022L208.483,230.545z"/>
				</g>
				<g>
					<polygon style="fill:#848689;" points="246.596,224.686 248.155,218.341 236.434,218.341 234.511,224.686 					"/>
					<path style="fill:#565759;" d="M246.976,225.17h-13.119l2.217-7.314h12.7L246.976,225.17z M235.164,224.2h11.052l1.32-5.374
						h-10.743L235.164,224.2z"/>
				</g>
				<g>
					<polygon style="fill:#848689;" points="224.738,218.341 213.068,218.341 210.412,224.686 222.448,224.686 					"/>
					<path style="fill:#565759;" d="M222.788,225.17h-13.105l3.062-7.314h12.684L222.788,225.17z M211.141,224.2h10.968l1.939-5.374
						h-10.656L211.141,224.2z"/>
				</g>
				<g>
					<polygon style="fill:#848689;" points="258.704,224.686 259.903,218.341 248.155,218.341 246.596,224.686 					"/>
					<path style="fill:#565759;" d="M259.105,225.17h-13.128l1.798-7.314h12.713L259.105,225.17z M247.214,224.2h11.088l1.016-5.374
						h-10.782L247.214,224.2z"/>
				</g>
				<g>
					<polygon style="fill:#848689;" points="246.596,224.686 245.034,231.03 257.505,231.03 258.704,224.686 					"/>
					<path style="fill:#565759;" d="M257.906,231.515h-13.49l1.8-7.315h13.073L257.906,231.515z M245.653,230.545h11.449
						l1.016-5.375h-11.143L245.653,230.545z"/>
				</g>
				<g>
					<polygon style="fill:#848689;" points="258.704,224.686 257.505,231.03 269.993,231.03 270.836,224.686 					"/>
					<path style="fill:#565759;" d="M270.418,231.515h-13.499l1.383-7.315h13.089L270.418,231.515z M258.09,230.545h11.478
						l0.714-5.375h-11.177L258.09,230.545z"/>
				</g>
				<g>
					<polygon style="fill:#848689;" points="234.511,224.686 232.588,231.03 245.034,231.03 246.596,224.686 					"/>
					<path style="fill:#565759;" d="M245.414,231.515h-13.48l2.217-7.315h13.063L245.414,231.515z M233.241,230.545h11.413
						l1.323-5.375H234.87L233.241,230.545z"/>
				</g>
				<g>
					<polygon style="fill:#848689;" points="222.448,224.686 220.159,231.03 232.588,231.03 234.511,224.686 					"/>
					<path style="fill:#565759;" d="M232.947,231.515h-13.479l2.639-7.315h13.057L232.947,231.515z M220.85,230.545h11.378
						l1.629-5.375h-11.067L220.85,230.545z"/>
				</g>
				<g>
					<polygon style="fill:#848689;" points="270.836,224.686 269.993,231.03 282.503,231.03 282.991,224.686 					"/>
					<path style="fill:#565759;" d="M282.952,231.515H269.44l0.973-7.315h13.103L282.952,231.515z M270.547,230.545h11.507
						l0.414-5.375h-11.207L270.547,230.545z"/>
				</g>
				<g>
					<polygon style="fill:#848689;" points="282.991,224.686 282.503,231.03 295.033,231.03 295.17,224.686 					"/>
					<path style="fill:#565759;" d="M295.508,231.515h-13.529l0.565-7.315h13.122L295.508,231.515z M283.026,230.545h11.532
						l0.115-5.375H283.44L283.026,230.545z"/>
				</g>
				<g>
					<polygon style="fill:#848689;" points="295.17,224.686 295.033,231.03 307.583,231.03 307.372,224.686 					"/>
					<path style="fill:#565759;" d="M308.084,231.515h-13.546l0.157-7.315h13.145L308.084,231.515z M295.528,230.545h11.553
						l-0.178-5.375h-11.259L295.528,230.545z"/>
				</g>
				<g>
					<polygon style="fill:#848689;" points="224.738,218.341 227.025,211.995 215.727,211.995 213.068,218.341 					"/>
					<path style="fill:#565759;" d="M225.079,218.826h-12.74l3.064-7.316h12.313L225.079,218.826z M213.798,217.856h10.6
						l1.938-5.376h-10.286L213.798,217.856z"/>
				</g>
				<g>
					<polygon style="fill:#848689;" points="283.478,218.341 283.966,211.995 272.519,211.995 271.678,218.341 					"/>
					<path style="fill:#565759;" d="M283.928,218.826h-12.804l0.97-7.316h12.395L283.928,218.826z M272.23,217.856h10.799
						l0.412-5.376h-10.497L272.23,217.856z"/>
				</g>
				<g>
					<polygon style="fill:#848689;" points="271.678,218.341 272.519,211.995 261.103,211.995 259.903,218.341 					"/>
					<path style="fill:#565759;" d="M272.103,218.826h-12.785l1.383-7.316h12.372L272.103,218.826z M260.488,217.856h10.764
						l0.714-5.376h-10.462L260.488,217.856z"/>
				</g>
				<g>
					<polygon style="fill:#848689;" points="295.306,218.341 295.44,211.995 283.966,211.995 283.478,218.341 					"/>
					<path style="fill:#565759;" d="M295.78,218.826h-12.825l0.561-7.316h12.419L295.78,218.826z M284.002,217.856h10.829
						l0.114-5.376h-10.531L284.002,217.856z"/>
				</g>
				<g>
					<polygon style="fill:#848689;" points="306.946,211.995 306.732,205.65 295.577,205.65 295.44,211.995 295.306,218.341 
						307.158,218.341 					"/>
					<path style="fill:#565759;" d="M307.659,218.826h-12.849l0.292-13.661h12.099L307.659,218.826z M295.802,217.856h10.855
						l-0.395-11.72h-10.211L295.802,217.856z"/>
				</g>
				<g>
					<polygon style="fill:#848689;" points="259.903,218.341 261.103,211.995 249.712,211.995 248.155,218.341 					"/>
					<path style="fill:#565759;" d="M260.305,218.826h-12.768l1.795-7.316h12.356L260.305,218.826z M248.773,217.856h10.728
						l1.016-5.376h-10.424L248.773,217.856z"/>
				</g>
				<g>
					<polygon style="fill:#848689;" points="248.155,218.341 249.712,211.995 238.355,211.995 236.434,218.341 					"/>
					<path style="fill:#565759;" d="M248.536,218.826H235.78l2.214-7.316h12.337L248.536,218.826z M237.087,217.856h10.688
						l1.319-5.376h-10.379L237.087,217.856z"/>
				</g>
				<g>
					<polygon style="fill:#848689;" points="213.068,218.341 201.43,218.341 198.4,224.686 210.412,224.686 					"/>
					<path style="fill:#565759;" d="M210.735,225.17h-13.104l3.492-7.314h12.673L210.735,225.17z M199.17,224.2h10.919l2.251-5.374
						h-10.604L199.17,224.2z"/>
				</g>
				<g>
					<polygon style="fill:#848689;" points="215.727,211.995 204.459,211.995 201.43,218.341 213.068,218.341 					"/>
					<path style="fill:#565759;" d="M213.392,218.826h-12.73l3.492-7.316h12.303L213.392,218.826z M202.199,217.856h10.546
						l2.252-5.376h-10.232L202.199,217.856z"/>
				</g>
				<g>
					<polygon style="fill:#848689;" points="210.412,224.686 198.4,224.686 195.369,231.03 207.754,231.03 					"/>
					<path style="fill:#565759;" d="M208.077,231.515h-13.477l3.494-7.315h13.047L208.077,231.515z M196.139,230.545h11.292
						l2.252-5.375h-10.975L196.139,230.545z"/>
				</g>
				<g>
					<polygon style="fill:#848689;" points="236.434,218.341 238.355,211.995 227.025,211.995 224.738,218.341 					"/>
					<path style="fill:#565759;" d="M236.793,218.826h-12.745l2.637-7.316h12.323L236.793,218.826z M225.429,217.856h10.645
						l1.628-5.376h-10.335L225.429,217.856z"/>
				</g>
				<g>
					<polygon style="fill:#848689;" points="282.503,231.03 282.016,237.376 294.897,237.376 295.033,231.03 					"/>
					<path style="fill:#565759;" d="M295.371,237.861h-13.879l0.562-7.316h13.475L295.371,237.861z M282.54,236.891h11.882
						l0.116-5.376h-11.586L282.54,236.891z"/>
				</g>
				<g>
					<polygon style="fill:#848689;" points="321.272,243.719 320.714,237.376 320.152,231.03 319.596,224.686 319.035,218.341 
						318.477,211.995 317.919,205.65 306.732,205.65 306.946,211.995 307.158,218.341 307.372,224.686 307.583,231.03 
						307.799,237.376 308.009,243.719 308.225,250.065 321.831,250.065 					"/>
					<path style="fill:#565759;" d="M322.361,250.55h-14.605l-1.526-45.385h12.134L322.361,250.55z M308.693,249.58h12.608
						l-3.827-43.444h-10.24L308.693,249.58z"/>
				</g>
				<g>
					<polygon style="fill:#848689;" points="245.034,231.03 243.478,237.376 256.306,237.376 257.505,231.03 					"/>
					<path style="fill:#565759;" d="M256.707,237.861h-13.849l1.796-7.316h13.436L256.707,237.861z M244.096,236.891h11.808
						l1.016-5.376h-11.504L244.096,236.891z"/>
				</g>
				<g>
					<polygon style="fill:#848689;" points="295.033,231.03 294.897,237.376 307.799,237.376 307.583,231.03 					"/>
					<path style="fill:#565759;" d="M308.301,237.861h-13.899l0.157-7.316h13.493L308.301,237.861z M295.393,236.891h11.904
						l-0.184-5.376h-11.605L295.393,236.891z"/>
				</g>
				<g>
					<polygon style="fill:#848689;" points="257.505,231.03 256.306,237.376 269.152,237.376 269.993,231.03 					"/>
					<path style="fill:#565759;" d="M269.577,237.861H255.72l1.383-7.316h13.443L269.577,237.861z M256.891,236.891h11.836
						l0.714-5.376h-11.534L256.891,236.891z"/>
				</g>
				<g>
					<polygon style="fill:#848689;" points="269.993,231.03 269.152,237.376 282.016,237.376 282.503,231.03 					"/>
					<path style="fill:#565759;" d="M282.465,237.861h-13.866l0.969-7.316h13.459L282.465,237.861z M269.705,236.891h11.861
						l0.412-5.376h-11.559L269.705,236.891z"/>
				</g>
				<g>
					<polygon style="fill:#848689;" points="202.438,243.719 199.78,250.065 213.294,250.065 215.582,243.719 					"/>
					<path style="fill:#565759;" d="M213.635,250.55h-14.584l3.064-7.316h14.157L213.635,250.55z M200.51,249.58h12.442l1.939-5.376
						h-12.131L200.51,249.58z"/>
				</g>
				<g>
					<polygon style="fill:#848689;" points="231.603,199.306 233.893,192.96 223.702,192.96 221.042,199.306 					"/>
					<path style="fill:#565759;" d="M231.943,199.791h-11.631l3.066-7.316h11.204L231.943,199.791z M221.771,198.821h9.49
						l1.94-5.376h-9.177L221.771,198.821z"/>
				</g>
				<g>
					<polygon style="fill:#848689;" points="263.499,199.306 264.7,192.96 254.392,192.96 252.832,199.306 					"/>
					<path style="fill:#565759;" d="M263.9,199.791h-11.686l1.798-7.316h11.273L263.9,199.791z M253.451,198.821h9.646l1.018-5.376
						h-9.343L253.451,198.821z"/>
				</g>
				<g>
					<polygon style="fill:#848689;" points="242.198,199.306 244.121,192.96 233.893,192.96 231.603,199.306 					"/>
					<path style="fill:#565759;" d="M242.559,199.791h-11.646l2.64-7.316h11.224L242.559,199.791z M232.293,198.821h9.546
						l1.629-5.376h-9.233L232.293,198.821z"/>
				</g>
				<g>
					<polygon style="fill:#848689;" points="252.832,199.306 254.392,192.96 244.121,192.96 242.198,199.306 					"/>
					<path style="fill:#565759;" d="M253.212,199.791h-11.667l2.217-7.316h11.249L253.212,199.791z M242.853,198.821h9.6l1.32-5.376
						h-9.292L242.853,198.821z"/>
				</g>
				<g>
					<polygon style="fill:#848689;" points="274.203,199.306 275.044,192.96 264.7,192.96 263.499,199.306 					"/>
					<path style="fill:#565759;" d="M274.628,199.791h-11.715l1.385-7.316h11.3L274.628,199.791z M264.084,198.821h9.693
						l0.714-5.376h-9.39L264.084,198.821z"/>
				</g>
				<g>
					<polygon style="fill:#848689;" points="200.034,199.306 203.439,192.96 193.369,192.96 189.586,199.306 					"/>
					<path style="fill:#565759;" d="M200.323,199.791h-11.591l4.36-7.316h11.156L200.323,199.791z M190.439,198.821h9.306
						l2.883-5.376h-8.982L190.439,198.821z"/>
				</g>
				<g>
					<polygon style="fill:#848689;" points="221.042,199.306 223.702,192.96 213.548,192.96 210.52,199.306 					"/>
					<path style="fill:#565759;" d="M221.365,199.791h-11.614l3.49-7.316h11.191L221.365,199.791z M211.289,198.821h9.431
						l2.253-5.376h-9.119L211.289,198.821z"/>
				</g>
				<g>
					<polygon style="fill:#848689;" points="317.358,199.306 316.8,192.96 306.308,192.96 306.52,199.306 					"/>
					<path style="fill:#565759;" d="M317.888,199.791h-11.837l-0.244-7.316h11.438L317.888,199.791z M306.988,198.821h9.841
						l-0.474-5.376h-9.547L306.988,198.821z"/>
				</g>
				<g>
					<polygon style="fill:#848689;" points="308.436,256.409 308.649,262.754 322.949,262.754 322.391,256.409 					"/>
					<path style="fill:#565759;" d="M323.478,263.239h-15.298l-0.248-7.315h14.902L323.478,263.239z M309.118,262.269h13.302
						l-0.474-5.375h-13.009L309.118,262.269z"/>
				</g>
				<g>
					<polygon style="fill:#848689;" points="252.707,256.409 251.51,262.754 265.783,262.754 266.627,256.409 					"/>
					<path style="fill:#565759;" d="M266.208,263.239h-15.283l1.381-7.315h14.875L266.208,263.239z M252.096,262.269h13.264
						l0.713-5.375h-12.963L252.096,262.269z"/>
				</g>
				<g>
					<polygon style="fill:#848689;" points="266.627,256.409 265.783,262.754 280.066,262.754 280.554,256.409 					"/>
					<path style="fill:#565759;" d="M280.516,263.239h-15.286l0.973-7.315h14.875L280.516,263.239z M266.338,262.269h13.279
						l0.412-5.375h-12.978L266.338,262.269z"/>
				</g>
				<g>
					<polygon style="fill:#848689;" points="238.798,256.409 237.238,262.754 251.51,262.754 252.707,256.409 					"/>
					<path style="fill:#565759;" d="M251.912,263.239H236.62l1.798-7.315h14.875L251.912,263.239z M237.857,262.269h13.251
						l1.014-5.375h-12.944L237.857,262.269z"/>
				</g>
				<g>
					<polygon style="fill:#848689;" points="197.124,256.409 194.466,262.754 208.719,262.754 211.007,256.409 					"/>
					<path style="fill:#565759;" d="M209.06,263.239h-15.323l3.064-7.315h14.896L209.06,263.239z M195.195,262.269h13.182
						l1.939-5.375h-12.869L195.195,262.269z"/>
				</g>
				<g>
					<polygon style="fill:#848689;" points="155.535,256.409 151.75,262.754 165.982,262.754 169.388,256.409 					"/>
					<path style="fill:#565759;" d="M166.271,263.239h-15.376l4.364-7.315h14.939L166.271,263.239z M152.605,262.269h13.087
						l2.886-5.375h-12.767L152.605,262.269z"/>
				</g>
				<g>
					<polygon style="fill:#848689;" points="211.007,256.409 208.719,262.754 222.975,262.754 224.898,256.409 					"/>
					<path style="fill:#565759;" d="M223.335,263.239h-15.308l2.639-7.315h14.885L223.335,263.239z M209.409,262.269h13.205
						l1.63-5.375h-12.896L209.409,262.269z"/>
				</g>
				<g>
					<polygon style="fill:#848689;" points="224.898,256.409 222.975,262.754 237.238,262.754 238.798,256.409 					"/>
					<path style="fill:#565759;" d="M237.618,263.239h-15.297l2.217-7.315h14.878L237.618,263.239z M223.628,262.269h13.23
						l1.321-5.375h-12.922L223.628,262.269z"/>
				</g>
				<g>
					<polygon style="fill:#848689;" points="183.25,256.409 180.221,262.754 194.466,262.754 197.124,256.409 					"/>
					<path style="fill:#565759;" d="M194.789,263.239h-15.338l3.493-7.315h14.909L194.789,263.239z M180.99,262.269h13.152
						l2.252-5.375h-12.839L180.99,262.269z"/>
				</g>
				<g>
					<polygon style="fill:#848689;" points="186.281,250.065 183.25,256.409 197.124,256.409 199.78,250.065 					"/>
					<path style="fill:#565759;" d="M197.447,256.895h-14.966l3.494-7.314h14.533L197.447,256.895z M184.02,255.924h12.781
						l2.251-5.374h-12.465L184.02,255.924z"/>
				</g>
				<g>
					<polygon style="fill:#848689;" points="273.359,205.65 274.203,199.306 263.499,199.306 262.302,205.65 					"/>
					<path style="fill:#565759;" d="M273.784,206.136h-12.068l1.381-7.315h11.66L273.784,206.136z M262.887,205.165h10.049
						l0.713-5.374H263.9L262.887,205.165z"/>
				</g>
				<g>
					<polygon style="fill:#848689;" points="251.273,205.65 252.832,199.306 242.198,199.306 240.277,205.65 					"/>
					<path style="fill:#565759;" d="M251.653,206.136h-12.029l2.215-7.315h11.612L251.653,206.136z M240.931,205.165h9.963
						l1.32-5.374h-9.655L240.931,205.165z"/>
				</g>
				<g>
					<polygon style="fill:#848689;" points="262.302,205.65 263.499,199.306 252.832,199.306 251.273,205.65 					"/>
					<path style="fill:#565759;" d="M262.703,206.136h-12.049l1.799-7.315h11.631L262.703,206.136z M251.892,205.165h10.008
						l1.014-5.374h-9.701L251.892,205.165z"/>
				</g>
				<g>
					<polygon style="fill:#848689;" points="275.044,192.96 274.203,199.306 273.359,205.65 284.454,205.65 284.941,199.306 
						285.428,192.96 					"/>
					<path style="fill:#565759;" d="M284.903,206.136h-12.098l1.814-13.661h11.333L284.903,206.136z M273.914,205.165h10.091
						l0.899-11.72h-9.435L273.914,205.165z"/>
				</g>
				<g>
					<polygon style="fill:#848689;" points="306.52,199.306 306.308,192.96 295.848,192.96 295.713,199.306 295.577,205.65 
						306.732,205.65 					"/>
					<path style="fill:#565759;" d="M307.233,206.136h-12.152l0.292-13.661h11.403L307.233,206.136z M296.072,205.165h10.158
						l-0.392-11.72h-9.517L296.072,205.165z"/>
				</g>
				<g>
					<polygon style="fill:#848689;" points="285.428,192.96 284.941,199.306 284.454,205.65 283.966,211.995 295.44,211.995 
						295.577,205.65 295.713,199.306 295.848,192.96 					"/>
					<path style="fill:#565759;" d="M295.915,212.48h-12.474l1.537-20.005h11.365L295.915,212.48z M284.489,211.51h10.477
						l0.387-18.064h-9.476L284.489,211.51z"/>
				</g>
				<g>
					<polygon style="fill:#848689;" points="229.316,205.65 231.603,199.306 221.042,199.306 218.386,205.65 					"/>
					<path style="fill:#565759;" d="M229.656,206.136h-11.999l3.063-7.315h11.573L229.656,206.136z M219.114,205.165h9.86
						l1.938-5.374h-9.547L219.114,205.165z"/>
				</g>
				<g>
					<polygon style="fill:#848689;" points="200.034,199.306 189.586,199.306 185.802,205.65 196.628,205.65 					"/>
					<path style="fill:#565759;" d="M196.917,206.136h-11.969l4.361-7.315h11.535L196.917,206.136z M186.655,205.165h9.683
						l2.885-5.374h-9.361L186.655,205.165z"/>
				</g>
				<g>
					<polygon style="fill:#848689;" points="196.628,205.65 185.802,205.65 182.019,211.995 193.223,211.995 					"/>
					<path style="fill:#565759;" d="M193.513,212.48h-12.348l4.361-7.314h11.912L193.513,212.48z M182.872,211.51h10.061
						l2.883-5.374h-9.738L182.872,211.51z"/>
				</g>
				<g>
					<polygon style="fill:#848689;" points="240.277,205.65 242.198,199.306 231.603,199.306 229.316,205.65 					"/>
					<path style="fill:#565759;" d="M240.638,206.136h-12.013l2.637-7.315h11.591L240.638,206.136z M230.006,205.165h9.912
						l1.627-5.374h-9.602L230.006,205.165z"/>
				</g>
				<g>
					<polygon style="fill:#848689;" points="317.919,205.65 317.358,199.306 306.52,199.306 306.732,205.65 					"/>
					<path style="fill:#565759;" d="M318.448,206.136h-12.186l-0.244-7.315h11.784L318.448,206.136z M307.201,205.165h10.189
						l-0.476-5.374h-9.894L307.201,205.165z"/>
				</g>
				<g>
					<polygon style="fill:#848689;" points="218.386,205.65 221.042,199.306 210.52,199.306 207.489,205.65 					"/>
					<path style="fill:#565759;" d="M218.709,206.136H206.72l3.494-7.315h11.557L218.709,206.136z M208.258,205.165h9.806
						l2.25-5.374h-9.487L208.258,205.165z"/>
				</g>
				<g>
					<polygon style="fill:#848689;" points="383.288,231.03 381.037,224.686 378.79,218.341 376.542,211.995 374.293,205.65 
						362.958,205.65 351.653,205.65 340.379,205.65 341.622,211.995 342.864,218.341 344.107,224.686 345.35,231.03 
						346.593,237.376 359.559,237.376 372.538,237.376 385.537,237.376 					"/>
					<path style="fill:#565759;" d="M386.224,237.861h-40.029l-6.404-32.695h34.846L386.224,237.861z M346.991,236.891h37.858
						l-10.899-30.755h-32.982L346.991,236.891z"/>
				</g>
				<g>
					<polygon style="fill:#848689;" points="193.223,211.995 182.019,211.995 178.235,218.341 189.818,218.341 					"/>
					<path style="fill:#565759;" d="M190.108,218.826h-12.727l4.361-7.316h12.291L190.108,218.826z M179.089,217.856h10.439
						l2.884-5.376h-10.118L179.089,217.856z"/>
				</g>
				<g>
					<polygon style="fill:#848689;" points="199.78,250.065 197.124,256.409 211.007,256.409 213.294,250.065 					"/>
					<path style="fill:#565759;" d="M211.348,256.895h-14.952l3.062-7.314h14.527L211.348,256.895z M197.853,255.924h12.813
						l1.938-5.374h-12.501L197.853,255.924z"/>
				</g>
				<g>
					<polygon style="fill:#848689;" points="308.225,250.065 308.436,256.409 322.391,256.409 321.831,250.065 					"/>
					<path style="fill:#565759;" d="M322.92,256.895h-14.954l-0.242-7.314h14.552L322.92,256.895z M308.904,255.924h12.956
						l-0.474-5.374h-12.661L308.904,255.924z"/>
				</g>
				<g>
					<polygon style="fill:#848689;" points="267.47,250.065 266.627,256.409 280.554,256.409 281.04,250.065 					"/>
					<path style="fill:#565759;" d="M281.002,256.895h-14.93l0.973-7.314h14.52L281.002,256.895z M267.181,255.924h12.924
						l0.412-5.374h-12.623L267.181,255.924z"/>
				</g>
				<g>
					<polygon style="fill:#848689;" points="308.436,256.409 308.225,250.065 308.009,243.719 294.763,243.719 294.628,250.065 
						294.491,256.409 294.354,262.754 308.649,262.754 					"/>
					<path style="fill:#565759;" d="M309.151,263.239h-15.292l0.429-20.005h14.19L309.151,263.239z M294.851,262.269h13.297
						l-0.607-18.065h-12.303L294.851,262.269z"/>
				</g>
				<g>
					<polygon style="fill:#848689;" points="281.04,250.065 280.554,256.409 280.066,262.754 294.354,262.754 294.491,256.409 
						294.628,250.065 					"/>
					<path style="fill:#565759;" d="M294.829,263.239h-15.286l1.048-13.659h14.532L294.829,263.239z M280.59,262.269h13.291
						l0.252-11.719h-12.644L280.59,262.269z"/>
				</g>
				<g>
					<polygon style="fill:#848689;" points="183.008,231.03 170.667,231.03 166.884,237.376 179.604,237.376 					"/>
					<path style="fill:#565759;" d="M179.893,237.861H166.03l4.36-7.316h13.428L179.893,237.861z M167.736,236.891h11.577
						l2.884-5.376h-11.255L167.736,236.891z"/>
				</g>
				<g>
					<polygon style="fill:#848689;" points="176.197,243.719 163.102,243.719 159.318,250.065 172.792,250.065 					"/>
					<path style="fill:#565759;" d="M173.082,250.55h-14.617l4.361-7.316h14.182L173.082,250.55z M160.172,249.58h12.331
						l2.883-5.376h-12.008L160.172,249.58z"/>
				</g>
				<g>
					<polygon style="fill:#848689;" points="159.318,250.065 155.535,256.409 169.388,256.409 172.792,250.065 					"/>
					<path style="fill:#565759;" d="M169.678,256.895h-14.996l4.361-7.314h14.561L169.678,256.895z M156.389,255.924h12.709
						l2.884-5.374h-12.388L156.389,255.924z"/>
				</g>
				<g>
					<polygon style="fill:#848689;" points="179.604,237.376 166.884,237.376 163.102,243.719 176.197,243.719 					"/>
					<path style="fill:#565759;" d="M176.486,244.204h-14.238l4.359-7.313h13.807L176.486,244.204z M163.955,243.234h11.952
						l2.885-5.374h-11.633L163.955,243.234z"/>
				</g>
				<g>
					<polygon style="fill:#848689;" points="189.818,218.341 178.235,218.341 174.452,224.686 186.412,224.686 					"/>
					<path style="fill:#565759;" d="M186.702,225.17h-13.104l4.361-7.314h12.669L186.702,225.17z M175.306,224.2h10.816l2.886-5.374
						h-10.497L175.306,224.2z"/>
				</g>
				<g>
					<polygon style="fill:#848689;" points="186.412,224.686 174.452,224.686 170.667,231.03 183.008,231.03 					"/>
					<path style="fill:#565759;" d="M183.298,231.515h-13.485l4.364-7.315h13.046L183.298,231.515z M171.521,230.545h11.196
						l2.884-5.375h-10.874L171.521,230.545z"/>
				</g>
				<g>
					<polygon style="fill:#848689;" points="226.818,250.065 224.898,256.409 238.798,256.409 240.359,250.065 					"/>
					<path style="fill:#565759;" d="M239.178,256.895h-14.934l2.215-7.314h14.519L239.178,256.895z M225.551,255.924h12.867
						l1.322-5.374h-12.562L225.551,255.924z"/>
				</g>
				<g>
					<polygon style="fill:#848689;" points="240.359,250.065 238.798,256.409 252.707,256.409 253.906,250.065 					"/>
					<path style="fill:#565759;" d="M253.109,256.895h-14.93l1.8-7.314h14.513L253.109,256.895z M239.416,255.924h12.89l1.016-5.374
						h-12.582L239.416,255.924z"/>
				</g>
				<g>
					<polygon style="fill:#848689;" points="253.906,250.065 252.707,256.409 266.627,256.409 267.47,250.065 					"/>
					<path style="fill:#565759;" d="M267.051,256.895h-14.929l1.383-7.314h14.519L267.051,256.895z M253.293,255.924h12.909
						l0.713-5.374h-12.607L253.293,255.924z"/>
				</g>
				<g>
					<polygon style="fill:#848689;" points="213.294,250.065 211.007,256.409 224.898,256.409 226.818,250.065 					"/>
					<path style="fill:#565759;" d="M225.258,256.895h-14.941l2.636-7.314h14.521L225.258,256.895z M211.697,255.924h12.841
						l1.627-5.374h-12.53L211.697,255.924z"/>
				</g>
			</g>
		</g>
		<g>
			<g>
				<rect x="135.796" y="275.698" style="fill:#797A7D;" width="23.522" height="3.067"/>
				<g>
					<rect x="137.048" y="275.698" style="fill:#3D3F41;" width="22.271" height="1.985"/>
				</g>
			</g>
			<g>
				<rect x="167.842" y="275.698" style="fill:#797A7D;" width="10.698" height="3.067"/>
				<g>
					<rect x="168.412" y="275.698" style="fill:#3D3F41;" width="10.128" height="1.985"/>
				</g>
			</g>
			<g>
				<rect x="396.145" y="273.939" style="fill:#8F8F8F;" width="0.577" height="3.947"/>
				<rect x="397.804" y="273.939" style="fill:#8F8F8F;" width="0.576" height="3.947"/>
				<rect x="399.46" y="273.939" style="fill:#8F8F8F;" width="0.577" height="3.947"/>
				<rect x="401.119" y="273.939" style="fill:#8F8F8F;" width="0.576" height="3.947"/>
				<rect x="402.777" y="273.939" style="fill:#8F8F8F;" width="0.575" height="3.947"/>
				<rect x="404.435" y="273.939" style="fill:#8F8F8F;" width="0.576" height="3.947"/>
				<rect x="406.091" y="273.939" style="fill:#8F8F8F;" width="0.577" height="3.947"/>
				<rect x="407.748" y="273.939" style="fill:#8F8F8F;" width="0.578" height="3.947"/>
				<rect x="409.406" y="273.939" style="fill:#8F8F8F;" width="0.577" height="3.947"/>
				<rect x="411.064" y="273.939" style="fill:#8F8F8F;" width="0.578" height="3.947"/>
				<rect x="412.722" y="273.939" style="fill:#8F8F8F;" width="0.576" height="3.947"/>
				<rect x="414.379" y="273.939" style="fill:#8F8F8F;" width="0.576" height="3.947"/>
				<rect x="416.037" y="273.939" style="fill:#8F8F8F;" width="0.576" height="3.947"/>
				<rect x="417.694" y="273.939" style="fill:#8F8F8F;" width="0.576" height="3.947"/>
				<rect x="419.353" y="273.939" style="fill:#8F8F8F;" width="0.576" height="3.947"/>
				<rect x="421.01" y="273.939" style="fill:#8F8F8F;" width="0.576" height="3.947"/>
			</g>
		</g>
	</g>
</g>
</svg>
